<?xml version="1.0" encoding="UTF-8" standalone="no"?><!DOCTYPE svg PUBLIC "-//W3C//DTD SVG 1.1//EN" "http://www.w3.org/Graphics/SVG/1.1/DTD/svg11.dtd"><svg width="100%" height="100%" viewBox="0 0 2134 2134" version="1.1" xmlns="http://www.w3.org/2000/svg" xmlns:xlink="http://www.w3.org/1999/xlink" xml:space="preserve" xmlns:serif="http://www.serif.com/" style="fill-rule:evenodd;clip-rule:evenodd;stroke-linejoin:round;stroke-miterlimit:2;"><rect id="Prancheta1" x="0" y="0" width="2133.33" height="2133.33" style="fill:none;"/><path d="M0,2133.33l0,-991.666l150,-0l0,841.666l1833.33,0l0,-1833.33l-1833.33,0l0,841.667l-150,-0l0,-991.667l2133.33,0l0,2133.33l-2133.33,0Z"/><g><g><path d="M344.831,1594.06l185.179,-224.938l172.702,-0l-221.357,268.884l221.357,268.884l-172.702,0l-185.179,-224.938l-0,226.38l-133.334,0l0,-766.666l133.334,-0l-0,452.394Z"/></g><path d="M873.932,1407.95c40.461,-24.651 87.816,-38.832 138.408,-38.832c148.799,-0 269.605,122.673 269.605,273.772c0,151.099 -120.806,273.772 -269.605,273.772c-50.592,-0 -97.947,-14.181 -138.408,-38.833l-0,30.499l-133.334,0l0,-766.666l133.334,-0l-0,266.288Zm-0,257.702c10.743,67.768 68.662,119.599 138.408,119.599c77.376,0 140.195,-63.79 140.195,-142.361c-0,-78.572 -62.819,-142.362 -140.195,-142.362c-69.746,0 -127.665,51.831 -138.408,119.599l-0,45.525Z"/></g></svg>